<svg width="84" height="88" viewBox="0 0 84 88" fill="none" xmlns="http://www.w3.org/2000/svg">
<path d="M40.1064 1.96094C41.1037 0.804657 42.8963 0.804658 43.8936 1.96094L59.7637 20.3623C60.051 20.6954 60.3986 20.9714 60.7881 21.1758L81.9727 32.2861C83.1743 32.9164 83.6535 34.3907 83.0527 35.6074L71.7373 58.5244C71.5615 58.8806 71.4475 59.2648 71.4004 59.6592L68.3408 85.2529C68.1671 86.7041 66.7905 87.6974 65.3584 87.4053L42.6992 82.7822C42.2378 82.6882 41.7622 82.6882 41.3008 82.7822L18.6416 87.4053C17.2095 87.6974 15.8329 86.7041 15.6592 85.2529L12.5996 59.6592C12.5525 59.2648 12.4385 58.8806 12.2627 58.5244L0.947266 35.6074C0.346525 34.3907 0.825678 32.9164 2.02734 32.2861L23.2119 21.1758C23.6014 20.9714 23.949 20.6954 24.2363 20.3623L40.1064 1.96094Z" fill="#D9D9D9" stroke="black"/>
</svg>
