<svg width="93" height="94" viewBox="0 0 93 94" fill="none" xmlns="http://www.w3.org/2000/svg">
<path d="M46.1417 93.7469C46.4177 93.7378 46.634 93.5066 46.6249 93.2307C46.6158 92.9547 46.3847 92.7383 46.1087 92.7474L46.1417 93.7469ZM46.4787 4.10068C46.674 3.90542 46.674 3.58884 46.4787 3.39358L43.2968 0.211597C43.1015 0.0163353 42.7849 0.0163353 42.5896 0.211597C42.3944 0.40686 42.3944 0.723442 42.5896 0.918704L45.4181 3.74713L42.5896 6.57556C42.3944 6.77082 42.3944 7.0874 42.5896 7.28267C42.7849 7.47793 43.1015 7.47793 43.2968 7.28267L46.4787 4.10068ZM46.1252 93.2471C46.1087 92.7474 46.1088 92.7474 46.1087 92.7474C46.1084 92.7474 46.1081 92.7474 46.1076 92.7474C46.1066 92.7475 46.1048 92.7475 46.1024 92.7476C46.0975 92.7477 46.09 92.7479 46.0797 92.7482C46.0592 92.7487 46.0279 92.7494 45.9862 92.7501C45.9029 92.7515 45.778 92.7529 45.6144 92.7529C45.287 92.7527 44.8046 92.7468 44.1893 92.7231C42.9585 92.6757 41.1971 92.5578 39.082 92.275C34.8494 91.7091 29.2147 90.4851 23.5867 87.8566C17.9609 85.2292 12.3517 81.2034 8.14755 75.0358C3.94549 68.8713 1.125 60.5348 1.125 49.2471H0.625H0.125C0.125 60.7094 2.99204 69.248 7.32126 75.5991C11.6484 81.9471 17.4143 86.0776 23.1635 88.7627C28.9105 91.4467 34.6508 92.6914 38.9495 93.2662C41.1001 93.5537 42.8934 93.674 44.1509 93.7223C44.7797 93.7465 45.2749 93.7527 45.614 93.7529C45.7836 93.7529 45.9142 93.7515 46.0031 93.75C46.0475 93.7492 46.0815 93.7485 46.1047 93.7479C46.1163 93.7476 46.1252 93.7473 46.1314 93.7472C46.1345 93.7471 46.1369 93.747 46.1386 93.747C46.1395 93.7469 46.1402 93.7469 46.1406 93.7469C46.1412 93.7469 46.1417 93.7469 46.1252 93.2471ZM0.625 49.2471H1.125C1.125 37.9596 3.94545 29.5272 8.15043 23.2198C12.3575 16.9092 17.9705 12.6959 23.5987 9.88185C29.2289 7.06677 34.8651 5.65675 39.098 4.95127C41.2132 4.59872 42.9749 4.42265 44.2057 4.33473C44.8211 4.29078 45.3035 4.26887 45.6309 4.25796C45.7945 4.25251 45.9194 4.2498 46.0027 4.24845C46.0444 4.24778 46.0756 4.24745 46.0962 4.24729C46.1064 4.24721 46.114 4.24717 46.1189 4.24715C46.1213 4.24714 46.123 4.24714 46.1241 4.24713C46.1246 4.24713 46.1249 4.24713 46.1252 4.24713C46.1253 4.24713 46.1252 4.24713 46.1252 3.74713C46.1252 3.24713 46.1248 3.24713 46.1242 3.24713C46.1237 3.24713 46.123 3.24713 46.1221 3.24714C46.1204 3.24714 46.118 3.24714 46.1149 3.24716C46.1088 3.24718 46.0998 3.24723 46.0882 3.24732C46.065 3.2475 46.031 3.24787 45.9866 3.24858C45.8977 3.25002 45.7671 3.25286 45.5975 3.25852C45.2584 3.26982 44.7633 3.29235 44.1345 3.33727C42.877 3.42709 41.084 3.60648 38.9336 3.96487C34.6352 4.68127 28.8964 6.11499 23.1515 8.98742C17.4046 11.8608 11.6426 16.1788 7.31838 22.6651C2.99207 29.1545 0.125 37.7846 0.125 49.2471H0.625Z" fill="black"/>
<path d="M46.1113 93.7421C45.8353 93.7346 45.6176 93.5047 45.6252 93.2287C45.6327 92.9526 45.8626 92.735 46.1387 92.7425L46.1113 93.7421ZM46.125 20.9138C44.6522 20.9138 43.4583 19.7199 43.4583 18.2471C43.4583 16.7744 44.6522 15.5805 46.125 15.5805C47.5978 15.5805 48.7917 16.7744 48.7917 18.2471C48.7917 19.7199 47.5978 20.9138 46.125 20.9138ZM46.125 93.2423C46.1387 92.7425 46.1386 92.7425 46.1388 92.7425C46.1391 92.7425 46.1394 92.7425 46.1399 92.7425C46.1411 92.7426 46.1429 92.7426 46.1454 92.7427C46.1504 92.7428 46.1582 92.743 46.1687 92.7432C46.1897 92.7436 46.2216 92.7442 46.2639 92.7448C46.3487 92.746 46.4755 92.7472 46.6415 92.7471C46.9735 92.747 47.4623 92.742 48.0856 92.7221C49.3324 92.6824 51.116 92.5833 53.2574 92.346C57.5429 91.8711 63.2475 90.844 68.9445 88.6387C74.6421 86.4332 80.3097 83.0583 84.5513 77.9008C88.7861 72.7516 91.625 65.7955 91.625 56.3732H92.125H92.625C92.625 66.0139 89.7139 73.1979 85.3237 78.536C80.9403 83.8658 75.1079 87.3253 69.3055 89.5713C63.5025 91.8176 57.7071 92.8591 53.3676 93.34C51.1965 93.5805 49.3864 93.6812 48.1175 93.7216C47.483 93.7418 46.9836 93.747 46.6418 93.7471C46.4708 93.7472 46.3393 93.746 46.25 93.7447C46.2053 93.7441 46.1712 93.7435 46.148 93.743C46.1364 93.7427 46.1275 93.7425 46.1214 93.7424C46.1183 93.7423 46.1159 93.7423 46.1143 93.7422C46.1134 93.7422 46.1127 93.7422 46.1123 93.7422C46.1117 93.7421 46.1113 93.7421 46.125 93.2423ZM92.125 56.3732H91.625C91.625 46.9509 88.786 39.9139 84.5479 34.6449C80.3034 29.368 74.6326 25.8365 68.9336 23.4748C63.2352 21.1133 57.5297 19.9302 53.2441 19.3381C51.1026 19.0423 49.3188 18.8945 48.072 18.8207C47.4487 18.7838 46.9598 18.7654 46.6278 18.7562C46.4618 18.7517 46.335 18.7494 46.2503 18.7483C46.2079 18.7477 46.1761 18.7474 46.1551 18.7473C46.1446 18.7472 46.1368 18.7472 46.1318 18.7471C46.1292 18.7471 46.1274 18.7471 46.1263 18.7471C46.1257 18.7471 46.1254 18.7471 46.1251 18.7471C46.125 18.7471 46.125 18.7471 46.125 18.2471C46.125 17.7471 46.1254 17.7471 46.1259 17.7471C46.1264 17.7471 46.1271 17.7471 46.1279 17.7471C46.1296 17.7471 46.132 17.7471 46.135 17.7472C46.1411 17.7472 46.15 17.7472 46.1616 17.7473C46.1849 17.7474 46.219 17.7477 46.2636 17.7483C46.353 17.7495 46.4845 17.7519 46.6554 17.7566C46.9972 17.7661 47.4966 17.7849 48.1311 17.8225C49.4 17.8976 51.21 18.0477 53.3809 18.3476C57.7203 18.947 63.5149 20.1467 69.3164 22.551C75.1174 24.955 80.9466 28.5722 85.3271 34.0182C89.714 39.4721 92.625 46.7325 92.625 56.3732H92.125Z" fill="black"/>
</svg>
